<svg xmlns="http://www.w3.org/2000/svg" viewBox="0 0 2560 512"><path fill="#777" d="M643.493 16.03c.238-.006.519-.009.799-.009 11.026 0 20.952 4.707 27.88 12.221 7.197 7.425 11.62 17.528 11.62 28.663 0 .252-.003.503-.007.754.004.148.006.367.006.587 0 10.959-4.78 20.803-12.37 27.558-7.487 7.11-17.584 11.463-28.697 11.463-.187 0-.372-.001-.558-.004-.303.011-.691.017-1.081.017-10.881 0-20.66-4.719-27.402-12.222-6.926-7.624-11.148-17.753-11.148-28.867 0-.411.006-.822.018-1.23-.001.032-.001-.002-.001-.035 0-10.91 4.829-20.691 12.466-27.324 7.372-7.173 17.394-11.573 28.443-11.573h.035zm-29.516 179.91h59.031v304.958h-59.031zm411.214 57.136h194.532v21.663q0 99.649-64.988 167.887-65.421 69.591-164.42 69.591h-13.972a25.403 25.403 0 0 0-4.365-.646q-50.875-.004-103.841-31.09c-29.01-16.893-53.304-38.63-72.554-64.361q-57.043-77.206-57.043-163.044c.618-43.663 12.604-84.399 33.119-119.546q48.549-88.959 142.783-120.044C936.03 5.69 960.948.968 986.903.491q66.831-.003 114.922 22.038t92.5 72.191l-44.734 41.593q-60.601-79.99-158.68-79.99c-34.149.12-66.018 9.775-93.115 26.439a206.975 206.975 0 0 0-68.547 65.376c-18.986 28.529-30.01 62.627-30.01 99.3 0 .63.004 1.258.01 1.887l1.245 3.695c.496 74.034 39.422 138.869 97.807 175.609 24.519 16.168 53.391 25.765 84.457 26.501.433.005.719.005 1.005.005 29.141 0 56.665-6.922 81.019-19.212 24.425-12.106 45.488-30.117 61.288-52.157q27.418-38.409 27.418-74.423H1025.19zM1568.819 10.94h60.601v311.295q0 82.535-48.742 135.393-49.824 54.157-131.71 54.157c-1.073.023-2.337.036-3.604.036-33.797 0-65.415-9.334-92.416-25.563-27.66-17.067-49.869-42.344-63.173-72.438-12.354-26.546-19.369-56.419-19.471-87.921V10.94h60.601v299.542q0 62.822 26.645 100.57 30.761 42.838 91.417 42.838 119.632 0 119.632-148.824zm143.408 0h60.71v489.958h-60.71zm147.361 0h102.357c1.815-.035 3.955-.055 6.1-.055 49.6 0 96.713 10.648 139.178 29.783 43.427 19.553 79.96 53.346 103.264 95.474 17.189 32.286 26.943 69.25 26.943 108.492 0 1.54-.015 3.077-.045 4.61q.003 106.081-64.119 174.914-71.379 76.469-205.796 76.469h-107.88zm61.252 55.835v378.287h37.151q139.617 0 192.311-91.688c15.591-27.394 24.782-60.188 24.782-95.127 0-1.247-.012-2.492-.035-3.733q.003-95.346-66.015-144.196-58.706-43.326-157.705-43.326zm375.903-55.835h263.041v55.836h-201.952v137.071h197.077v55.836h-197.077v185.38h202.114v55.836h-263.203zM440.296 0H71.27C31.909 0 0 31.909 0 71.27v369.026c0 39.361 31.909 71.27 71.27 71.27h369.026c39.361 0 71.271-31.909 71.271-71.27V71.27c0-39.361-31.909-71.27-71.27-71.27zm14.352 415.005c0 21.894-17.748 39.643-39.643 39.643H96.508c-21.894 0-39.643-17.748-39.643-39.643v-176.01h125.806c0 2.004-.325 4.062-.325 6.119 1.28 52.485 44.132 94.543 96.805 94.543s95.525-42.058 96.803-94.424c.002-2.177.002-4.18-.322-6.184h78.906zM225.997 245.06c0-29.611 24.005-53.615 53.615-53.615s53.615 24.005 53.615 53.615c0 29.611-24.005 53.615-53.615 53.615h-.054c-29.592 0-53.584-23.974-53.615-53.559zm228.651-60.222h-99.757c-17.851-22.459-45.169-36.732-75.82-36.732s-57.968 14.273-75.668 36.535l-146.538.198V96.563c0-21.894 17.749-39.643 39.643-39.643h318.497c21.894 0 39.643 17.748 39.643 39.643z"/></svg>